<?xml version="1.0" encoding="UTF-8"?>
<!DOCTYPE svg PUBLIC "-//W3C//DTD SVG 1.1//EN" "http://www.w3.org/Graphics/SVG/1.1/DTD/svg11.dtd">
<!-- Creator: CorelDRAW X7 -->
<svg xmlns="http://www.w3.org/2000/svg" xml:space="preserve" width="474px" height="474px" version="1.1" style="shape-rendering:geometricPrecision; text-rendering:geometricPrecision; image-rendering:optimizeQuality; fill-rule:evenodd; clip-rule:evenodd"
viewBox="0 0 723 723"
 xmlns:xlink="http://www.w3.org/1999/xlink">
 <defs>
  <style type="text/css">
   <![CDATA[
    .fil0 {fill:#00003D}
    .fil2 {fill:#000057}
    .fil1 {fill:#003BB0}
   ]]>
  </style>
 </defs>
 <g id="Layer_x0020_1">
  <metadata id="CorelCorpID_0Corel-Layer"/>
  <g id="_410529792">
   <path class="fil0" d="M154 467c2,1 4,2 6,2l37 0c7,0 11,-4 11,-11l0 -7c9,12 21,18 38,18 6,0 10,-4 10,-11l0 -37c0,-2 0,-3 -1,-4l0 -3c1,-2 1,-3 1,-4l0 -38c0,-1 0,-2 -1,-3l0 -4c1,-1 1,-2 1,-3 0,-1 0,-4 -1,-7l0 -13c0,-2 0,-4 -1,-6 1,-1 1,-3 1,-5 0,-4 -2,-12 -6,-23 -8,-17 -22,-25 -41,-25 -2,0 -4,1 -6,2 -2,-1 -3,-2 -5,-2l-38 0c-2,0 -4,1 -6,2 -1,-1 -3,-2 -5,-2 -4,0 -12,2 -23,6 -16,8 -25,22 -25,42 0,2 1,4 2,5 -1,2 -2,4 -2,6l0 38c0,1 1,2 1,3l0 4c0,1 -1,2 -1,3 0,1 1,4 1,7l0 13c0,2 1,4 2,5 -1,2 -2,4 -2,6 0,4 2,12 6,23 8,17 22,25 42,25 2,0 3,-1 5,-2zm51 -173c0,-2 1,-3 3,-3 27,2 40,16 40,41 0,1 -1,2 -2,3l-38 0c-2,-1 -3,-2 -3,-3l0 -38zm0 49c0,-2 1,-3 3,-3l38 0c1,0 2,1 2,3l0 37c0,2 -1,3 -2,3l-38 0c-2,0 -3,-1 -3,-3l0 -37zm3 46l38 0c1,0 2,0 2,2l0 38c0,2 -1,3 -2,3 -25,0 -39,-14 -41,-41 0,-2 1,-2 3,-2zm-51 -95c0,-2 1,-3 3,-3l37 0c2,0 3,1 3,3l0 38c0,2 -1,3 -3,3l-37 0c-2,-1 -3,-2 -3,-3l0 -38zm2 78l38 0 0 8 -38 0 0 -8zm-2 19c0,-2 1,-2 3,-2l37 0c2,0 3,0 3,2l0 38c0,2 -1,3 -3,3l-37 0c-2,0 -3,-1 -3,-3l0 -38zm-8 -100c1,0 2,1 3,3l0 38c-1,2 -2,3 -3,3l-38 0c-2,-1 -3,-2 -3,-3 2,-27 16,-41 41,-41zm-41 52c1,-2 2,-3 3,-3l38 0c2,0 3,1 3,3l0 37c-1,2 -2,3 -3,3l-38 0c-2,0 -3,-1 -3,-3l0 -37zm0 48c0,-2 1,-2 3,-2l38 0c2,0 3,0 3,2l0 38c-1,2 -2,3 -3,3 -27,-2 -41,-16 -41,-41zm319 -29c0,-1 0,-4 -1,-7l0 -13c0,-2 0,-4 -1,-6 1,-1 1,-3 1,-5 0,-4 -2,-12 -5,-23 -8,-17 -22,-25 -42,-25 -2,0 -4,1 -6,2 -1,-1 -3,-2 -5,-2l-38 0 0 -1c0,-19 -8,-33 -25,-41 -7,-4 -15,-6 -23,-7 -7,0 -10,3 -10,11l0 37c0,2 0,3 0,4l0 4c0,1 0,2 0,3l0 38c0,1 0,2 0,4l0 3c0,1 0,3 0,4l0 38c0,1 0,2 0,3l0 4c0,1 0,2 0,3 0,1 0,4 0,7l0 13c0,2 1,4 2,5 -1,2 -2,4 -2,6 0,4 2,12 6,23 8,17 22,25 42,25 2,0 4,-1 5,-2 2,1 4,2 6,2l38 0c2,0 3,-1 5,-2 1,1 3,2 5,2 4,0 12,-2 24,-6 16,-8 24,-22 24,-42 0,-2 0,-4 -1,-6 1,-1 1,-3 1,-5l0 -38c0,-1 0,-2 -1,-3l0 -4c1,-1 1,-2 1,-3zm-104 67c0,2 -1,3 -3,3 -27,-2 -40,-16 -40,-41 0,-2 1,-2 3,-2l37 0c2,0 3,0 3,2l0 38zm0 -49c0,2 -1,3 -3,3l-37 0c-2,0 -3,-1 -3,-3l0 -37c0,-2 1,-3 3,-3l37 0c2,0 3,1 3,3l0 37zm0 -48c0,2 -1,3 -3,3l-37 0c-2,-1 -3,-2 -3,-3l0 -38c0,-2 1,-3 3,-3l37 0c2,0 3,1 3,3l0 38zm-3 -46l-37 0c-2,0 -3,-1 -3,-3l0 -38c0,-1 1,-2 3,-2 25,0 38,13 40,40 0,2 -1,3 -3,3zm51 143c0,2 -1,3 -2,3l-38 0c-2,0 -3,-1 -3,-3l0 -38c0,-2 1,-2 3,-2l38 0c1,0 2,0 2,2l0 38zm-2 -49l-39 0 0 -8 39 0 0 8zm2 -48c0,2 -1,3 -2,3l-38 0c-2,-1 -3,-2 -3,-3l0 -38c0,-2 1,-3 3,-3l38 0c1,0 2,1 2,3l0 38zm8 100c-2,0 -2,-1 -2,-3l0 -38c0,-2 0,-2 2,-2l38 0c2,0 2,0 2,2 -1,27 -15,41 -40,41zm40 -52c0,2 0,3 -2,3l-38 0c-2,0 -2,-1 -2,-3l0 -37c0,-2 0,-3 2,-3l38 0c2,0 2,1 2,3l0 37zm-2 -45l-38 0c-2,-1 -2,-2 -2,-3l0 -38c0,-2 0,-3 2,-3 27,2 40,16 40,41 0,1 0,2 -2,3zm181 27c0,-1 0,-4 0,-7l0 -13c0,-2 -1,-4 -2,-6 1,-1 2,-3 2,-5 0,-4 -2,-12 -6,-23 -8,-17 -22,-25 -42,-25 -2,0 -4,1 -5,2 -2,-1 -4,-2 -6,-2l-38 0c-1,0 -3,1 -5,2 -1,-1 -3,-2 -5,-2 -4,0 -12,2 -24,6 -16,8 -24,22 -24,42 0,2 0,4 1,5 -1,2 -1,4 -1,6l0 38c0,1 0,2 1,3l0 4c-1,1 -1,2 -1,3l0 38c0,1 0,3 1,4l0 26c0,7 3,11 10,11 16,0 29,-6 38,-18l0 7c0,7 3,11 10,11 16,0 29,-6 38,-18l0 7c0,7 4,11 10,11 5,0 12,-2 24,-6 16,-8 24,-22 24,-42 0,-2 0,-4 -1,-6 1,-1 1,-3 1,-5l0 -38c0,-1 0,-2 0,-3l0 -4c0,-1 0,-2 0,-3zm-144 70c-2,0 -3,-1 -3,-3l0 -38c0,-2 1,-2 3,-2l37 0c2,0 3,0 3,2 -2,27 -15,41 -40,41zm40 -52c0,2 -1,3 -3,3l-37 0c-2,0 -3,-1 -3,-3l0 -37c0,-2 1,-3 3,-3l37 0c2,0 3,1 3,3l0 37zm0 -48c0,2 -1,3 -3,3l-37 0c-2,-1 -3,-2 -3,-3 2,-27 15,-41 40,-41 2,0 3,1 3,3l0 38zm8 100c-2,0 -2,-1 -2,-3l0 -38c0,-2 0,-2 2,-2l38 0c2,0 2,0 2,2 -1,27 -15,41 -40,41zm40 -52c0,2 0,3 -2,3l-38 0c-2,0 -2,-1 -2,-3l0 -37c0,-2 0,-3 2,-3l38 0c2,0 2,1 2,3l0 37zm0 -48c0,2 0,3 -2,3l-38 0c-2,-1 -2,-2 -2,-3l0 -38c0,-2 0,-3 2,-3l38 0c2,0 2,1 2,3l0 38zm8 100c-1,0 -2,-1 -2,-3l0 -38c0,-2 1,-2 2,-2l38 0c2,0 3,0 3,2 -2,27 -16,41 -41,41zm41 -52c0,2 -1,3 -3,3l-38 0c-1,0 -2,-1 -2,-3l0 -37c0,-2 1,-3 2,-3l38 0c2,0 3,1 3,3l0 37zm-3 -45l-38 0c-1,-1 -2,-2 -2,-3l0 -38c0,-2 1,-3 2,-3 27,2 41,16 41,41 0,1 -1,2 -3,3zm28 56c0,3 0,6 1,8l0 11c0,2 0,4 1,6 -1,1 -1,3 -1,5 0,20 8,34 24,42 7,4 15,5 23,6 2,0 4,-1 6,-2 2,1 3,2 5,2l38 0c7,0 10,-4 10,-11 0,-3 -1,-10 -5,-21 3,-2 5,-5 5,-9 0,-4 -2,-12 -6,-23 -9,-17 -23,-25 -42,-25l0 -8 38 0c7,0 10,-4 10,-10l0 -38c0,-2 0,-3 0,-4l0 -27c0,-6 -4,-10 -11,-10l-37 0 0 -8c0,-1 -1,-3 -1,-3l0 -27c0,-7 -3,-11 -10,-11l-38 0c-6,0 -10,4 -10,11l0 37c0,2 0,3 1,4l0 4c-1,1 -1,2 -1,3l0 38c0,1 0,3 1,4l0 4c-1,1 -1,2 -1,3l0 38c0,1 0,3 1,4l0 3c-1,2 -1,3 -1,4zm57 -97c0,-2 1,-3 2,-3l38 0c2,0 3,1 3,3l0 38c0,1 -1,2 -3,3l-38 0c-1,0 -2,-1 -2,-3l0 -38zm0 97c0,-2 1,-2 2,-2 27,1 41,15 41,40 0,2 -1,3 -3,3l-38 0c-1,0 -2,-1 -2,-3l0 -38zm-49 -146c0,-1 1,-2 3,-2l37 0c2,0 3,1 3,2l0 38c0,2 -1,3 -3,3l-37 0c-2,0 -3,-1 -3,-3l0 -38zm0 49c0,-2 1,-3 3,-3l37 0c2,0 3,1 3,3l0 38c0,1 -1,2 -3,3l-37 0c-2,0 -3,-1 -3,-3l0 -38zm0 49c0,-2 1,-3 3,-3l37 0c2,0 3,1 3,3l0 37c0,2 -1,3 -3,3l-37 0c-2,0 -3,-1 -3,-3l0 -37zm3 46l37 0c2,0 3,0 3,2l0 38c0,2 -1,3 -3,3 -25,0 -38,-14 -40,-41 0,-2 1,-2 3,-2z"/>
   <path class="fil1" d="M342 0c126,0 237,73 296,181l-74 45c-44,-81 -127,-136 -222,-136 -141,0 -256,122 -256,272 0,149 115,271 256,271 95,0 178,-55 222,-136l74 45c-59,108 -170,181 -296,181 -188,0 -342,-162 -342,-361 0,-200 154,-362 342,-362z"/>
   <path class="fil2" d="M296 43c114,0 214,70 263,173 -46,-75 -126,-124 -216,-124 -141,0 -256,121 -256,270 0,149 115,271 256,271 88,0 166,-47 212,-119 -50,99 -147,166 -259,166 -163,0 -295,-143 -295,-318 0,-176 132,-319 295,-319z"/>
  </g>
 </g>
</svg>
